<?xml version="1.0" encoding="iso-8859-1"?>
<!-- Generator: Adobe Illustrator 19.0.0, SVG Export Plug-In . SVG Version: 6.00 Build 0)  -->
<svg version="1.1" id="Capa_1" xmlns="http://www.w3.org/2000/svg" xmlns:xlink="http://www.w3.org/1999/xlink" x="0px" y="0px"
	 viewBox="0 0 512 512" style="enable-background:new 0 0 512 512;" xml:space="preserve">
<g>
	<g>
		<path d="M407,361h-29.001v-33.509c34.192-6.968,60-37.271,60-73.491c0-13.812-3.794-27.319-10.987-39.091l-52.407-85.345
			c-2.202-4.037-4.609-7.947-7.198-11.722L295.043,0h-78.086l-72.362,117.841c-2.59,3.777-4.998,7.688-7.2,11.726l-52.423,85.37
			C77.795,226.681,74.001,240.188,74.001,254c0,36.22,25.808,66.522,60,73.491V361H105C47.103,361,0,408.103,0,466v46h512v-46
			C512,408.103,464.897,361,407,361z M134.001,482H30v-16c0-41.355,33.645-75,75-75h29.001V482z M233.74,30h44.52l22.497,36.636
			C286.743,61.697,271.682,59,256,59s-30.743,2.697-44.757,7.636L233.74,30z M256,89c23.095,0,44.467,7.5,61.822,20.185
			c-17.846,13.054-39.291,20.109-61.822,20.109s-43.976-7.054-61.822-20.109C211.533,96.5,232.905,89,256,89z M163.384,144.573
			l6.452-10.507c0.869-1.246,1.765-2.471,2.685-3.677c24.394,19.222,53.934,28.842,83.478,28.842s59.084-9.62,83.478-28.842
			c0.922,1.207,1.819,2.435,2.689,3.682l6.446,10.497C356.512,159.308,361,176.139,361,194c0,57.897-47.103,105-105,105
			c-57.897,0-105-47.103-105-105C151,176.141,155.487,159.312,163.384,144.573z M226.071,361h-62.07v-32h47.477
			C213.832,340.872,218.929,351.762,226.071,361z M104.001,254c0-8.289,2.271-16.388,6.552-23.392l11.609-18.905
			c4.621,35.125,22.799,66.035,49.09,87.296h-22.25C124.188,299,104.001,278.813,104.001,254z M164.001,482v-66.394L222.713,482
			H164.001z M182.288,391h147.424L256,474.357L182.288,391z M347.999,482h-58.712l58.712-66.394V482z M347.999,361H287
			c-20.671,0-38.255-13.42-44.531-32h105.53V361z M340.749,299c26.291-21.261,44.469-52.171,49.09-87.297l11.592,18.877
			c4.297,7.032,6.568,15.131,6.568,23.42c0,24.813-20.187,45-45,45H340.749z M482,482H377.999v-91H407c41.355,0,75,33.645,75,75V482
			z"/>
	</g>
</g>
<g>
</g>
<g>
</g>
<g>
</g>
<g>
</g>
<g>
</g>
<g>
</g>
<g>
</g>
<g>
</g>
<g>
</g>
<g>
</g>
<g>
</g>
<g>
</g>
<g>
</g>
<g>
</g>
<g>
</g>
</svg>
